<?xml version="1.0" standalone="no"?>
<!DOCTYPE svg PUBLIC "-//W3C//DTD SVG 20010904//EN"
 "http://www.w3.org/TR/2001/REC-SVG-20010904/DTD/svg10.dtd">
<svg version="1.0" xmlns="http://www.w3.org/2000/svg"
 width="130.000000pt" height="130.000000pt" viewBox="0 0 130.000000 130.000000"
 preserveAspectRatio="xMidYMid meet">
<metadata>
Created by potrace 1.14, written by Peter Selinger 2001-2017
</metadata>
<g transform="translate(0.000000,130.000000) scale(0.100000,-0.100000)"
fill="#000000" stroke="none">
<path d="M395 1092 c-121 -70 -220 -134 -220 -142 0 -12 58 -54 105 -77 8 -4
87 -50 175 -101 105 -62 170 -95 190 -95 25 0 178 81 305 163 8 5 39 22 67 37
74 38 110 69 98 82 -6 6 -107 67 -225 136 -146 85 -225 125 -245 125 -20 0
-102 -42 -250 -128z"/>
<path d="M137 893 c-4 -3 -7 -121 -7 -260 0 -275 4 -298 55 -325 13 -7 66 -37
117 -67 51 -30 107 -62 123 -71 17 -10 62 -36 101 -59 76 -44 90 -48 96 -28 7
21 2 511 -5 534 -7 20 -88 73 -195 129 -7 4 -70 40 -140 80 -130 77 -134 78
-145 67z"/>
<path d="M907 768 c-147 -85 -229 -139 -234 -152 -13 -38 -9 -538 4 -543 13
-5 35 7 273 145 168 98 197 120 206 156 9 40 -1 519 -11 523 -6 2 -113 -56
-238 -129z"/>
</g>
</svg>
